PathFileType	4	(X/Y/Z)	CPRIT_Patient3_R_HipIso_Processed.TRC
DataRate	CameraRate	NumFrames	NumMarkers	Units	OrigDataRate	OrigDataStartFrame	OrigNumFrames
150.128314798973	150.128314798973	4	39	m	150.128314798973	440	       1171
Frame#	Time	R.Heel			R.Midfoot.Superior			R.Midfoot.Lateral			R.Toe			L.Heel			L.Midfoot.Superior			L.Midfoot.Lateral			L.Toe			R.Shank.Superior			R.Shank.Inferior			R.Shank.Lateral			R.Shank.Posterior			L.Shank.Superior			L.Shank.Inferior			L.Shank.Posterior			L.Shank.Lateral			R.Patella			L.Patella			R.Thigh.Superior			R.Thigh.Lateral			R.Thigh.Inferior			L.Thigh.Superior			L.Thigh.Inferior			L.Thigh.Lateral			L.Asis			R.Asis			Sacral			R.Shoulder			L.Shoulder			C7			J.Notch			Sternum			Thoracic			L.Elbow			L.Wrist			R.Elbow			R.Wrist			R.PSIS			L.PSIS			
		X1	Y1	Z1	X2	Y2	Z2	X3	Y3	Z3	X4	Y4	Z4	X5	Y5	Z5	X6	Y6	Z6	X7	Y7	Z7	X8	Y8	Z8	X9	Y9	Z9	X10	Y10	Z10	X11	Y11	Z11	X12	Y12	Z12	X13	Y13	Z13	X14	Y14	Z14	X15	Y15	Z15	X16	Y16	Z16	X17	Y17	Z17	X18	Y18	Z18	X19	Y19	Z19	X20	Y20	Z20	X21	Y21	Z21	X22	Y22	Z22	X23	Y23	Z23	X24	Y24	Z24	X25	Y25	Z25	X26	Y26	Z26	X27	Y27	Z27	X28	Y28	Z28	X29	Y29	Z29	X30	Y30	Z30	X31	Y31	Z31	X32	Y32	Z32	X33	Y33	Z33	X34	Y34	Z34	X35	Y35	Z35	X36	Y36	Z36	X37	Y37	Z37	X38	Y38	Z38	X39	Y39	Z39	

440	2.924165242165	0.616092095527	0.212499929226	0.406649864144	0.750277208545	0.313374982965	0.465202363453	0.647592354908	0.255977159181	0.486528732428	0.840162964940	0.318934653878	0.552738118909	0.720410813880	0.042590882710	-0.221928445682	0.890906083293	0.096476822952	-0.215285927061	0.806619704887	0.033007399240	-0.268774387951	1.007854192355	0.058038879923	-0.204355462912	0.749323667122	0.522755417877	0.309565409262	0.724209201207	0.420319229996	0.371065247918	0.646782171535	0.484507725882	0.344919145048	0.633079483153	0.491362973771	0.241245986939	0.847823923465	0.367773671349	-0.237143312089	0.837861454205	0.238526983195	-0.232478764518	0.713155076845	0.341095224055	-0.269411585442	0.795788227805	0.279739546244	-0.304217766084	0.795157649877	0.617834116506	0.238582760482	0.866112605399	0.478634847584	-0.227650366767	0.830809817103	0.876530251036	0.076230141237	0.738135403098	0.837754354775	0.125607691225	0.832551754294	0.738235382755	0.143487696962	0.922877683404	0.768967045828	-0.234335179010	0.898883843606	0.614797136163	-0.217838601737	0.840873705889	0.707808503325	-0.310925792165	0.920069054297	0.923142171138	-0.222438370435	0.833830623169	0.983306179554	0.000302596274	0.711024808582	1.016028704352	-0.178873784203	0.789288197679	1.417623396648	0.005261073590	0.922432838758	1.455924071501	-0.294348034965	0.814338959189	1.482438407375	-0.141615615741	0.926701221848	1.380052745070	-0.115863707394	0.967997114172	1.195843862337	-0.118099937207	0.731050176144	1.341858004267	-0.188370168652	0.900556444205	1.179539599143	-0.482523061975	1.059192193848	0.973513864528	-0.485040791444	0.759916549887	1.150713178511	0.213563103398	0.844160781050	0.989078241932	0.398223530164	0.700002467364	1.025258302601	-0.144991593226	0.723057974303	1.010796422234	-0.215184375159	
441	2.930826210826	0.612719512982	0.220829277619	0.417514954671	0.746590508067	0.322620936991	0.475254472170	0.643722529139	0.265695907010	0.496902130098	0.835865339556	0.329617502238	0.563356453591	0.720407622335	0.042589259776	-0.221918465870	0.890905214746	0.096472240548	-0.215259575639	0.806620099653	0.033015630050	-0.268765400444	1.007847168415	0.058021199838	-0.204342660859	0.746810599905	0.529397558438	0.316024894385	0.721216971437	0.428011036037	0.379102438676	0.643992069311	0.491822842771	0.351415721552	0.630950288193	0.496946372611	0.247531546222	0.847834756107	0.367750698052	-0.237010194546	0.837861574797	0.238519029134	-0.232363864754	0.713127861774	0.341114891677	-0.269226623167	0.795772378763	0.279772508225	-0.304063819083	0.793151600270	0.623257386729	0.243725895516	0.866129564658	0.478642515077	-0.227423761847	0.830110564837	0.879165773686	0.077407441611	0.736825796467	0.841300098844	0.126835878361	0.831153500727	0.742009215986	0.146776391763	0.922683397574	0.768940811752	-0.234364794167	0.898825370378	0.614834898627	-0.217725109253	0.840711347894	0.707772400161	-0.310861482979	0.920106601552	0.923135690060	-0.222306024707	0.833583803467	0.984309792796	0.000296204649	0.711049839359	1.016317643803	-0.179215168551	0.789354650953	1.417677880634	0.004913203242	0.922914225901	1.456184889237	-0.294485822247	0.814598167432	1.482593752223	-0.141872014953	0.926951829283	1.380222540279	-0.116054861656	0.968171221320	1.195994536953	-0.118369824022	0.731369648847	1.342132265171	-0.188799518905	0.901009970452	1.179858140929	-0.482787460584	1.059246805652	0.973560136666	-0.484989024937	0.760168814369	1.150689727255	0.213415301155	0.844177364037	0.989096333505	0.398241118834	0.699970874815	1.025707769640	-0.145428178663	0.723103727975	1.010960716362	-0.215510466311	
442	2.937487179487	0.609385454854	0.229247376826	0.428119518668	0.742970464202	0.331928269510	0.485015553451	0.639926473949	0.275466592830	0.506986881263	0.831655013149	0.340345115969	0.573626151532	0.720405261868	0.042587556443	-0.221908675042	0.890904388732	0.096467380177	-0.215233244724	0.806620742974	0.033023703694	-0.268756507428	1.007841188895	0.058004003861	-0.204329298383	0.744353342694	0.536080580990	0.322309367371	0.718282334135	0.435752493225	0.386919194652	0.641265779307	0.499168594805	0.357730746996	0.628863731560	0.502583536609	0.253673716799	0.847846866422	0.367724970876	-0.236873214605	0.837862652073	0.238512224410	-0.232243322899	0.713101007618	0.341137352615	-0.269028892263	0.795757693882	0.279809214738	-0.303901598898	0.791194571295	0.628720051849	0.248734574186	0.866150339685	0.478651209849	-0.227182904539	0.829444626069	0.881829348612	0.078558016448	0.735540985962	0.844840915309	0.128022432522	0.829783247032	0.745826985391	0.149984588246	0.922494373557	0.768923286383	-0.234347792511	0.898768024167	0.614873791830	-0.217585788915	0.840550127720	0.707743966416	-0.310765485641	0.920146132186	0.923135698088	-0.222143741787	0.833326717126	0.985325332815	0.000302845117	0.711074234778	1.016613335365	-0.179539179373	0.789431544624	1.417736476832	0.004576377679	0.923401586368	1.456445599965	-0.294614503258	0.814864685460	1.482750319501	-0.142118906923	0.927212066767	1.380396776502	-0.116236337347	0.968351194919	1.196150874737	-0.118622592228	0.731696258652	1.342411239896	-0.189219886773	0.901469751113	1.180178234705	-0.483041885709	1.059304162979	0.973607062045	-0.484935287450	0.760426138688	1.150672462946	0.213274703216	0.844194694364	0.989115098292	0.398262329152	0.699937734441	1.026165708116	-0.145849589363	0.723151035602	1.011127602895	-0.215815682561	
443	2.944148148148	0.606097071781	0.237735538258	0.438454985623	0.739422849730	0.341278127812	0.494480406331	0.636209985459	0.285269445514	0.516776739779	0.827538157631	0.351097402620	0.583543933029	0.720403704622	0.042585803092	-0.221899132431	0.890903596157	0.096462304422	-0.215207064535	0.806621633457	0.033031567490	-0.268747735098	1.007836222621	0.057987416670	-0.204315514837	0.741954130740	0.542791828402	0.328414835465	0.715409288218	0.443528225018	0.394510834439	0.638606136676	0.506530778359	0.363860041886	0.626823060508	0.508262179695	0.259666625614	0.847859406911	0.367697506210	-0.236731518734	0.837864235037	0.238506792208	-0.232117733992	0.713073686840	0.341162282971	-0.268819113609	0.795743379355	0.279849466042	-0.303731759376	0.789287699407	0.634211778514	0.253605503550	0.866173783254	0.478660915269	-0.226929225795	0.828809161822	0.884516756806	0.079681301410	0.734280234784	0.848371666262	0.129166762876	0.828441341124	0.749682476913	0.153110877659	0.922310841997	0.768914427058	-0.234282925452	0.898711083520	0.614913759183	-0.217421037425	0.840390161434	0.707723414611	-0.310637597378	0.920187197859	0.923142041710	-0.221951815258	0.833059017429	0.986350990941	0.000321835170	0.711097707261	1.016915017689	-0.179846258748	0.789519388441	1.417798929016	0.004250893379	0.923895247276	1.456705474253	-0.294733912855	0.815139086097	1.482907752935	-0.142356033321	0.927482195616	1.380574698627	-0.116407877707	0.968537022737	1.196312067814	-0.118857749636	0.732030217928	1.342694428075	-0.189631311481	0.901935072761	1.180499370759	-0.483286335904	1.059364002118	0.973654472442	-0.484879710941	0.760687914735	1.150661182118	0.213141455486	0.844212711342	0.989134457723	0.398287112696	0.699902835660	1.026631066005	-0.146256076591	0.723199819326	1.011296266586	-0.216099986943	
